<?xml version="1.0" encoding="utf-8"?>
<!-- Generator: Adobe Illustrator 16.0.0, SVG Export Plug-In . SVG Version: 6.00 Build 0)  -->
<!DOCTYPE svg PUBLIC "-//W3C//DTD SVG 1.1//EN" "http://www.w3.org/Graphics/SVG/1.1/DTD/svg11.dtd">
<svg version="1.1" id="Warstwa_1" xmlns="http://www.w3.org/2000/svg" xmlns:xlink="http://www.w3.org/1999/xlink" x="0px" y="0px"
	 width="17px" height="13px" viewBox="0 0 17 13" enable-background="new 0 0 17 13" xml:space="preserve">
<path fill="#7CC576" d="M15.738,5.896l-4.846-4.645c-0.349-0.334-0.913-0.334-1.262,0c-0.349,0.334-0.349,0.875,0,1.21l3.322,3.184
	H1.892C1.399,5.645,1,6.027,1,6.5s0.399,0.855,0.892,0.855h11.062L9.631,10.54c-0.349,0.334-0.349,0.875,0,1.21
	C9.805,11.917,10.034,12,10.262,12s0.457-0.083,0.631-0.25l4.846-4.645C15.906,6.945,16,6.727,16,6.5S15.906,6.056,15.738,5.896z"/>
</svg>
