<?xml version="1.0" encoding="utf-8"?>
<!-- Generator: Adobe Illustrator 16.0.3, SVG Export Plug-In . SVG Version: 6.00 Build 0)  -->
<!DOCTYPE svg PUBLIC "-//W3C//DTD SVG 1.1//EN" "http://www.w3.org/Graphics/SVG/1.1/DTD/svg11.dtd">
<svg version="1.1" id="Warstwa_1" xmlns="http://www.w3.org/2000/svg" xmlns:xlink="http://www.w3.org/1999/xlink" x="0px" y="0px"
	 width="24px" height="32px" viewBox="0 0 24 32" enable-background="new 0 0 24 32" xml:space="preserve">
<path fill="#FFFFFF" d="M34.213,216.986C34.206,215.326,34.199,216.52,34.213,216.986L34.213,216.986z"/>
<g>
	<g>
		<path fill="#CCCCCC" d="M19.2,1H4.8C3.807,1,3,1.84,3,2.875v26.252C3,30.162,3.807,31,4.8,31h14.4c0.993,0,1.8-0.838,1.8-1.873
			V2.875C21,1.84,20.193,1,19.2,1z M7.95,2.875h8.1c0.249,0,0.45,0.211,0.45,0.469c0,0.26-0.201,0.469-0.45,0.469h-8.1
			c-0.249,0-0.45-0.209-0.45-0.469C7.5,3.086,7.701,2.875,7.95,2.875z M12,30.063c-0.496,0-0.898-0.42-0.898-0.936
			c0-0.52,0.402-0.939,0.898-0.939s0.898,0.42,0.898,0.939C12.898,29.643,12.496,30.063,12,30.063z M19.2,27.25H4.8V5.688h14.4
			V27.25z"/>
	</g>
</g>
</svg>
