<?xml version="1.0" encoding="utf-8"?>
<!-- Generator: Adobe Illustrator 16.0.3, SVG Export Plug-In . SVG Version: 6.00 Build 0)  -->
<!DOCTYPE svg PUBLIC "-//W3C//DTD SVG 1.1//EN" "http://www.w3.org/Graphics/SVG/1.1/DTD/svg11.dtd">
<svg version="1.1" id="Warstwa_1" xmlns="http://www.w3.org/2000/svg" xmlns:xlink="http://www.w3.org/1999/xlink" x="0px" y="0px"
	 width="24px" height="32px" viewBox="0 0 24 32" enable-background="new 0 0 24 32" xml:space="preserve">
<path fill="#FFFFFF" d="M34.213,216.986C34.206,215.326,34.199,216.52,34.213,216.986L34.213,216.986z"/>
<g>
	<g>
		<path fill="#CCCCCC" d="M12,1C5.926,1,1,6.037,1,12.25C1,18.465,12,31,12,31s11-12.535,11-18.75C23,6.037,18.076,1,12,1z
			 M12,16.938c-3.038,0-5.5-2.518-5.5-5.625c0-3.104,2.462-5.625,5.5-5.625s5.5,2.521,5.5,5.625C17.5,14.42,15.038,16.938,12,16.938
			z"/>
	</g>
</g>
</svg>
