<?xml version="1.0" encoding="utf-8"?>
<!-- Generator: Adobe Illustrator 16.0.3, SVG Export Plug-In . SVG Version: 6.00 Build 0)  -->
<!DOCTYPE svg PUBLIC "-//W3C//DTD SVG 1.1//EN" "http://www.w3.org/Graphics/SVG/1.1/DTD/svg11.dtd">
<svg version="1.1" id="Warstwa_1" xmlns="http://www.w3.org/2000/svg" xmlns:xlink="http://www.w3.org/1999/xlink" x="0px" y="0px"
	 width="50px" height="50px" viewBox="0 0 50 50" enable-background="new 0 0 50 50" xml:space="preserve">
<path fill="#777777" d="M46.072,3.13c0.004-0.641-0.273-1.25-0.756-1.655c-0.48-0.405-1.117-0.562-1.727-0.429L16.627,6.99
	c-0.94,0.207-1.615,1.06-1.622,2.051l-0.186,24.904c-1.503-0.924-3.323-1.473-5.287-1.487H9.445c-5.134,0-9.338,3.676-9.372,8.196
	C0.039,45.215,4.227,48.957,9.409,49h0.086c5.135,0,9.34-3.678,9.374-8.197l0,0l0,0l0.161-21.708l22.861-5.038l-0.104,13.945
	c-1.502-0.921-3.322-1.471-5.287-1.486h-0.09c-5.133,0-9.338,3.676-9.371,8.195c-0.035,4.561,4.154,8.305,9.336,8.346h0.086
	c4.734,0,8.672-3.129,9.285-7.158c0.049-0.182,0.086-0.367,0.086-0.563L46.072,3.13z M9.495,44.77H9.44
	c-2.871-0.021-5.283-1.893-5.267-4.082c0.016-2.205,2.381-4,5.271-4H9.5c2.871,0.021,5.284,1.896,5.268,4.084
	C14.752,42.977,12.386,44.77,9.495,44.77z M19.055,15.846l0.038-5.076l22.858-5.038l-0.037,5.076L19.055,15.846z M36.461,38.828
	l-0.055-0.002c-2.871-0.021-5.283-1.893-5.266-4.082c0.016-2.206,2.379-4,5.27-4h0.057c2.871,0.023,5.285,1.893,5.27,4.083
	C41.719,37.031,39.354,38.828,36.461,38.828z"/>
<g>
	<g>
		<path fill="#777777" d="M192.35-103.848c-1.898,0-3.439,1.679-3.439,3.75v40.5c0,2.072,1.541,3.75,3.439,3.75
			c1.897,0,3.439-1.679,3.439-3.75v-40.5C195.789-102.169,194.247-103.848,192.35-103.848z M178.079-90.484
			c-1.937,0-3.505,1.679-3.505,3.75v27.136c0,2.072,1.568,3.75,3.505,3.75s3.506-1.679,3.506-3.75v-27.136
			C181.585-88.806,180.016-90.484,178.079-90.484z M163.229-77.119c-1.896,0-3.438,1.679-3.438,3.75v13.77
			c0,2.072,1.541,3.75,3.438,3.75c1.899,0,3.441-1.679,3.441-3.75v-13.77C166.671-75.44,165.129-77.119,163.229-77.119z"/>
	</g>
</g>
<g>
	<path fill="#777777" d="M149.314,13.773c-0.4,0-0.801-0.115-1.151-0.342L135.788,5.38l-12.374,8.051
		c-0.738,0.481-1.696,0.453-2.405-0.073c-0.708-0.523-1.021-1.432-0.78-2.282l3.875-13.796l-11.563-9.817
		c-0.655-0.558-0.91-1.458-0.646-2.277c0.266-0.819,1-1.396,1.856-1.458l13.873-1.002l6.241-13.713
		c0.344-0.755,1.096-1.24,1.923-1.24c0.828,0,1.58,0.484,1.925,1.24l6.241,13.713l13.871,1.002c0.858,0.062,1.593,0.638,1.858,1.458
		c0.268,0.82,0.012,1.719-0.646,2.277L147.473-2.72l3.877,13.796c0.237,0.85-0.072,1.759-0.781,2.282
		C150.195,13.635,149.756,13.773,149.314,13.773z M135.788,0.731c0.401,0,0.802,0.114,1.151,0.341l8.813,5.737l-2.722-9.691
		c-0.229-0.799,0.033-1.657,0.669-2.193l8.646-7.338l-9.947-0.72c-0.771-0.055-1.451-0.528-1.771-1.234l-4.84-10.631l-4.84,10.631
		c-0.32,0.706-1,1.18-1.771,1.234l-9.948,0.72l8.646,7.338c0.632,0.537,0.896,1.394,0.669,2.193l-2.725,9.691l8.816-5.737
		C134.988,0.845,135.389,0.731,135.788,0.731z"/>
</g>
</svg>
