<?xml version="1.0" encoding="utf-8"?>
<!-- Generator: Adobe Illustrator 16.0.3, SVG Export Plug-In . SVG Version: 6.00 Build 0)  -->
<!DOCTYPE svg PUBLIC "-//W3C//DTD SVG 1.1//EN" "http://www.w3.org/Graphics/SVG/1.1/DTD/svg11.dtd">
<svg version="1.1" id="Warstwa_1" xmlns="http://www.w3.org/2000/svg" xmlns:xlink="http://www.w3.org/1999/xlink" x="0px" y="0px"
	 width="50px" height="50px" viewBox="0 0 50 50" enable-background="new 0 0 50 50" xml:space="preserve">
<g>
	<g>
		<g>
			<path fill="#777777" d="M38.68,1c-1.9,0-3.441,1.679-3.441,3.75v40.5c0,2.07,1.541,3.75,3.441,3.75
				c1.896,0,3.438-1.68,3.438-3.75V4.75C42.118,2.679,40.576,1,38.68,1z M24.408,14.364c-1.936,0-3.505,1.679-3.505,3.75V45.25
				c0,2.07,1.569,3.75,3.505,3.75c1.938,0,3.506-1.68,3.506-3.75V18.113C27.914,16.042,26.346,14.364,24.408,14.364z M9.558,27.729
				c-1.899,0-3.44,1.682-3.44,3.75V45.25c0,2.07,1.541,3.75,3.44,3.75s3.441-1.68,3.441-3.75V31.48
				C13,29.408,11.458,27.729,9.558,27.729z"/>
		</g>
	</g>
</g>
</svg>
