<?xml version="1.0" encoding="utf-8"?>
<!-- Generator: Adobe Illustrator 16.0.3, SVG Export Plug-In . SVG Version: 6.00 Build 0)  -->
<!DOCTYPE svg PUBLIC "-//W3C//DTD SVG 1.1//EN" "http://www.w3.org/Graphics/SVG/1.1/DTD/svg11.dtd">
<svg version="1.1" id="Warstwa_1" xmlns="http://www.w3.org/2000/svg" xmlns:xlink="http://www.w3.org/1999/xlink" x="0px" y="0px"
	 width="50px" height="50px" viewBox="0 0 50 50" enable-background="new 0 0 50 50" xml:space="preserve">
<g>
	<g>
		<path fill="#777777" d="M192.35-103.848c-1.899,0-3.44,1.679-3.44,3.75v40.5c0,2.072,1.541,3.75,3.44,3.75
			c1.897,0,3.439-1.679,3.439-3.75v-40.5C195.789-102.169,194.247-103.848,192.35-103.848z M178.079-90.484
			c-1.937,0-3.505,1.679-3.505,3.75v27.136c0,2.072,1.568,3.75,3.505,3.75s3.506-1.679,3.506-3.75v-27.136
			C181.585-88.806,180.016-90.484,178.079-90.484z M163.229-77.119c-1.897,0-3.438,1.679-3.438,3.75v13.77
			c0,2.072,1.541,3.75,3.438,3.75c1.899,0,3.441-1.679,3.441-3.75v-13.77C166.671-75.44,165.129-77.119,163.229-77.119z"/>
	</g>
</g>
<g>
	<path fill="#777777" d="M38.525,48c-0.4,0-0.801-0.115-1.151-0.342l-12.375-8.053l-12.374,8.053
		c-0.738,0.48-1.696,0.453-2.405-0.073c-0.708-0.522-1.02-1.433-0.781-2.282l3.876-13.795L1.748,21.69
		c-0.655-0.558-0.91-1.458-0.644-2.277c0.265-0.819,1-1.396,1.857-1.458l13.873-1.002L23.076,3.24C23.42,2.484,24.172,2,24.999,2
		c0.828,0,1.58,0.484,1.925,1.24l6.241,13.713l13.871,1.002c0.858,0.062,1.593,0.638,1.858,1.458
		c0.268,0.82,0.012,1.719-0.646,2.277l-11.565,9.817l3.877,13.796c0.236,0.85-0.072,1.76-0.781,2.281
		C39.407,47.861,38.967,48,38.525,48z M24.999,34.957c0.401,0,0.802,0.113,1.151,0.342l8.814,5.737l-2.722-9.69
		c-0.228-0.8,0.034-1.658,0.669-2.193l8.646-7.337l-9.947-0.72c-0.771-0.055-1.451-0.528-1.772-1.234L24.999,9.23L20.16,19.86
		c-0.321,0.706-1,1.18-1.771,1.234l-9.949,0.72l8.646,7.336c0.632,0.537,0.894,1.396,0.669,2.193l-2.723,9.691l8.816-5.737
		C24.199,35.07,24.599,34.957,24.999,34.957z"/>
</g>
</svg>
