<?xml version="1.0" encoding="utf-8"?>
<!-- Generator: Adobe Illustrator 16.0.3, SVG Export Plug-In . SVG Version: 6.00 Build 0)  -->
<!DOCTYPE svg PUBLIC "-//W3C//DTD SVG 1.1//EN" "http://www.w3.org/Graphics/SVG/1.1/DTD/svg11.dtd">
<svg version="1.1" id="Warstwa_1" xmlns="http://www.w3.org/2000/svg" xmlns:xlink="http://www.w3.org/1999/xlink" x="0px" y="0px"
	 width="26px" height="20px" viewBox="-1 12 26 20" enable-background="new -1 12 26 20" xml:space="preserve">
<path fill="#FFFFFF" d="M34.213,216.986C34.206,215.326,34.199,216.52,34.213,216.986L34.213,216.986z"/>
<path fill-rule="evenodd" clip-rule="evenodd" fill="#CCCCCC" d="M0.217,26.321c0,0,3.242,1.509,4.588,1.509
	c0,0,2.568,0.696,4.261-1.542c0,0,0.416-0.612-0.147-0.91c0,0-5.525-1.639-5.134-2.604c0,0-0.024-0.545,0.686-0.42
	c0,0,0.799-0.805,0.408-1.051c0,0-0.612-0.807-0.123-0.855c0,0,1.25,0.342,1.714,0.466c0,0,0.318-0.116,0.024-0.339
	c-0.294-0.224-0.815-0.659-0.717-0.758c0,0,0.203-0.486,0.987-0.14c0,0,0.244-0.05,0.024-0.298c0,0-0.564-0.396-0.246-0.718
	c0,0,0.897-0.654,3.175,2.143c0,0,0.416,0.569,0.465,0.025c0,0,1.65-7.111,4.321-7.582c0,0,0.857,0.173,1.028-0.099
	c0,0,0.742-0.297,0.987-0.05c0,0,0.244,0.372,0.538,0.149c0,0,1.054-0.421,0.735,0.272c0,0-1.085,0.982-1.452,1.007
	c-0.367,0.024-0.295,0.371,0.023,0.421c0,0,4.481,0.398,4.481,3.715c0,0,0.258,0.789,1.09-0.028c0,0,1.261-0.811,1.58-0.85
	c0,0,0.342-0.222,0.293,0.298c0,0-0.905,1.585-1.836,2.03c0,0-0.563,0.718,0.245,0.57c0,0,0.785-0.165,1.152-0.388
	c0,0,0.955-0.47,0.516,0.371c0,0-2.012,1.319-2.452,1.319c0,0-0.294,0.074-0.294,0.347c0,0-0.269,8.661-11.485,8.661
	c0,0-5.616,0.328-9.289-4.027C0.365,26.967-0.346,26.198,0.217,26.321z"/>
</svg>
