<?xml version="1.0" encoding="utf-8"?>
<!-- Generator: Adobe Illustrator 16.0.3, SVG Export Plug-In . SVG Version: 6.00 Build 0)  -->
<!DOCTYPE svg PUBLIC "-//W3C//DTD SVG 1.1//EN" "http://www.w3.org/Graphics/SVG/1.1/DTD/svg11.dtd">
<svg version="1.1" id="Warstwa_1" xmlns="http://www.w3.org/2000/svg" xmlns:xlink="http://www.w3.org/1999/xlink" x="0px" y="0px"
	 width="27px" height="22px" viewBox="-1.5 10 27 22" enable-background="new -1.5 10 27 22" xml:space="preserve">
<path fill="#FFFFFF" d="M34.213,216.986C34.206,215.326,34.199,216.52,34.213,216.986L34.213,216.986z"/>
<g>
	<g>
		<path fill-rule="evenodd" clip-rule="evenodd" fill="#CCCCCC" d="M22.001,11H2c-1.381,0-2.5,1.12-2.5,2.499V28.5
			c0,1.381,1.119,2.5,2.5,2.5h20.001c1.381,0,2.499-1.119,2.499-2.5V13.499C24.5,12.12,23.382,11,22.001,11z M11.167,25.166
			c0,0.461-0.373,0.833-0.833,0.833H2c-0.46,0-0.833-0.372-0.833-0.833v-8.334C1.167,16.373,1.54,16,2,16h8.333
			c0.46,0,0.833,0.374,0.833,0.833V25.166z M22.001,25.166H14.5c-0.46,0-0.833-0.373-0.833-0.833s0.373-0.834,0.833-0.834h7.501
			c0.459,0,0.833,0.374,0.833,0.834S22.46,25.166,22.001,25.166z M22.001,21.833H14.5c-0.46,0-0.833-0.373-0.833-0.833
			c0-0.461,0.373-0.834,0.833-0.834h7.501c0.459,0,0.833,0.373,0.833,0.834C22.834,21.46,22.46,21.833,22.001,21.833z M22.001,18.5
			H14.5c-0.46,0-0.833-0.373-0.833-0.834c0-0.46,0.373-0.834,0.833-0.834h7.501c0.459,0,0.833,0.374,0.833,0.834
			C22.834,18.127,22.46,18.5,22.001,18.5z"/>
	</g>
</g>
</svg>
