<?xml version="1.0" encoding="utf-8"?>
<!-- Generator: Adobe Illustrator 16.0.3, SVG Export Plug-In . SVG Version: 6.00 Build 0)  -->
<!DOCTYPE svg PUBLIC "-//W3C//DTD SVG 1.1//EN" "http://www.w3.org/Graphics/SVG/1.1/DTD/svg11.dtd">
<svg version="1.1" id="Warstwa_1" xmlns="http://www.w3.org/2000/svg" xmlns:xlink="http://www.w3.org/1999/xlink" x="0px" y="0px"
	 width="27px" height="24px" viewBox="-1.5 8 27 24" enable-background="new -1.5 8 27 24" xml:space="preserve">
<path fill="#FFFFFF" d="M34.213,216.986C34.206,215.326,34.199,216.52,34.213,216.986L34.213,216.986z"/>
<g>
	<g>
		<path fill-rule="evenodd" clip-rule="evenodd" fill="#CCCCCC" d="M6.922,18.429c1.51,0,2.734-1.231,2.734-2.75
			s-1.224-2.75-2.734-2.75c-1.51,0-2.734,1.231-2.734,2.75S5.412,18.429,6.922,18.429z M22.938,9H1.063C0.2,9-0.5,9.704-0.5,10.572
			v18.856C-0.5,30.297,0.2,31,1.063,31h21.875c0.863,0,1.563-0.703,1.563-1.571V10.572C24.5,9.704,23.801,9,22.938,9z
			 M22.157,27.071c0,0.868-0.7,1.571-1.563,1.571H3.406c-0.863,0-1.562-0.703-1.562-1.571V12.929c0-0.868,0.699-1.571,1.562-1.571
			h17.188c0.863,0,1.563,0.703,1.563,1.571V27.071z M11.219,24.714h-0.781l-3.125-3.928l-4.688,6.285h18.75l-4.687-13.356
			L11.219,24.714z"/>
	</g>
</g>
</svg>
