<?xml version="1.0" encoding="utf-8"?>
<!-- Generator: Adobe Illustrator 16.0.3, SVG Export Plug-In . SVG Version: 6.00 Build 0)  -->
<!DOCTYPE svg PUBLIC "-//W3C//DTD SVG 1.1//EN" "http://www.w3.org/Graphics/SVG/1.1/DTD/svg11.dtd">
<svg version="1.1" id="Warstwa_1" xmlns="http://www.w3.org/2000/svg" xmlns:xlink="http://www.w3.org/1999/xlink" x="0px" y="0px"
	 width="42px" height="42px" viewBox="0 -2 42 42" enable-background="new 0 -2 42 42" xml:space="preserve">
<g>
	<g>
		<g>
			<path d="M5.966,38h30.067l1.174-20.604H4.792L5.966,38z M27.785,24.264c0-0.758,0.607-1.373,1.357-1.373s1.355,0.615,1.355,1.373
				v8.242c0,0.76-0.605,1.373-1.355,1.373s-1.357-0.613-1.357-1.373V24.264z M19.644,24.264c0-0.758,0.607-1.373,1.356-1.373
				c0.75,0,1.358,0.615,1.358,1.373v8.242c0,0.76-0.607,1.373-1.358,1.373c-0.749,0-1.356-0.613-1.356-1.373V24.264z M11.5,24.264
				c0-0.758,0.608-1.373,1.357-1.373c0.75,0,1.357,0.615,1.357,1.373v8.242c0,0.76-0.607,1.373-1.357,1.373
				c-0.749,0-1.357-0.613-1.357-1.373V24.264z M36.607,9.157h-3.84c-0.061-0.221-0.139-0.438-0.256-0.646l-4.072-7.136
				c-0.75-1.313-2.408-1.765-3.707-1.006c-1.299,0.759-1.744,2.438-0.994,3.753l2.873,5.035H15.389l2.873-5.035
				c0.75-1.314,0.305-2.994-0.993-3.753C15.97-0.39,14.31,0.062,13.56,1.375L9.488,8.511C9.371,8.718,9.292,8.937,9.232,9.158H5.394
				C3.519,9.157,2,10.692,2,12.59c0,1.896,1.519,3.434,3.394,3.434h31.214c1.873,0,3.393-1.537,3.393-3.434
				C40,10.692,38.48,9.157,36.607,9.157z"/>
		</g>
	</g>
</g>
<g>
	<g>
		<path d="M7.486-374.493h26.667v21.76h4.002v-2.72h-0.245c0.149-0.427,0.245-0.881,0.245-1.36v-17.68
			c0-2.253-1.791-4.08-4.002-4.08H7.486c-2.208,0-4,1.826-4,4.08v17.68c0,0.479,0.096,0.933,0.245,1.36H3.486v2.72h4V-374.493z
			 M38.154-350.013H3.486c-1.472,0-2.667,1.218-2.667,2.721c0,1.502,2.527,2.72,3.999,2.72H36.82c1.474,0,4-1.218,4-2.72
			S39.627-350.013,38.154-350.013z M24.82-345.932h-8c-0.737,0-1.333-0.305-1.333-0.68s0.596-0.68,1.333-0.68h8
			c0.736,0,1.332,0.304,1.332,0.68C26.152-346.236,25.557-345.932,24.82-345.932z M26.014-370.145l-7.932,8.125l-2.46-2.521
			c-0.519-0.531-1.359-0.531-1.877,0l-1.877,1.924c-0.519,0.531-0.519,1.392,0,1.923l4.693,4.809
			c0.341,0.349,0.818,0.445,1.255,0.335c0.513,0.326,1.183,0.286,1.628-0.17l10.326-10.579c0.518-0.531,0.518-1.392,0-1.923
			l-1.877-1.923C27.372-370.676,26.532-370.676,26.014-370.145z"/>
	</g>
</g>
<g>
	<g>
		<path d="M31.501-311.424h-1.166v-9.5c0-4.592-4.179-8.313-9.334-8.313c-5.155,0-9.333,3.721-9.333,8.313v9.5h-1.167
			c-1.934,0-3.5,1.595-3.5,3.562v13.063c0,1.967,1.566,3.563,3.5,3.563h21c1.935,0,3.5-1.596,3.5-3.563v-13.063
			C35.001-309.829,33.436-311.424,31.501-311.424z M23.334-299.02v1.846c0,1.312-1.044,2.375-2.333,2.375
			c-1.288,0-2.333-1.063-2.333-2.375v-1.846c-1.39-0.823-2.334-2.338-2.334-4.092c0-2.624,2.09-4.75,4.667-4.75
			s4.667,2.126,4.667,4.75C25.668-301.357,24.725-299.843,23.334-299.02z M25.668-312.612c0,0.419-0.111,0.815-0.286,1.188H16.62
			c-0.174-0.373-0.286-0.769-0.286-1.188v-8.312c0-1.968,2.09-3.563,4.667-3.563s4.667,1.595,4.667,3.563V-312.612z"/>
	</g>
</g>
</svg>
