<?xml version="1.0" encoding="utf-8"?>
<!-- Generator: Adobe Illustrator 16.0.3, SVG Export Plug-In . SVG Version: 6.00 Build 0)  -->
<!DOCTYPE svg PUBLIC "-//W3C//DTD SVG 1.1//EN" "http://www.w3.org/Graphics/SVG/1.1/DTD/svg11.dtd">
<svg version="1.1" id="Warstwa_1" xmlns="http://www.w3.org/2000/svg" xmlns:xlink="http://www.w3.org/1999/xlink" x="0px" y="0px"
	 width="42px" height="42px" viewBox="0 0 42 42" enable-background="new 0 0 42 42" xml:space="preserve">
<g>
	<g>
		<g>
			<path fill-rule="evenodd" clip-rule="evenodd" d="M31.5,19.813h-1.166v-9.5C30.334,5.721,26.155,2,21,2
				c-5.155,0-9.333,3.721-9.333,8.313v9.5H10.5c-1.934,0-3.5,1.595-3.5,3.563v13.063C7,38.404,8.566,40,10.5,40h21
				c1.934,0,3.5-1.596,3.5-3.563V23.375C35,21.407,33.434,19.813,31.5,19.813z M23.333,32.217v1.846
				c0,1.312-1.044,2.375-2.333,2.375c-1.288,0-2.333-1.063-2.333-2.375v-1.846c-1.39-0.823-2.334-2.338-2.334-4.092
				c0-2.624,2.09-4.75,4.667-4.75s4.667,2.126,4.667,4.75C25.667,29.879,24.723,31.394,23.333,32.217z M25.667,18.625
				c0,0.419-0.112,0.814-0.286,1.188h-8.763c-0.174-0.373-0.286-0.769-0.286-1.188v-8.313c0-1.968,2.09-3.563,4.667-3.563
				s4.667,1.595,4.667,3.563V18.625z"/>
		</g>
	</g>
</g>
</svg>
