<?xml version="1.0" encoding="utf-8"?>
<!-- Generator: Adobe Illustrator 16.0.3, SVG Export Plug-In . SVG Version: 6.00 Build 0)  -->
<!DOCTYPE svg PUBLIC "-//W3C//DTD SVG 1.1//EN" "http://www.w3.org/Graphics/SVG/1.1/DTD/svg11.dtd">
<svg version="1.1" id="Warstwa_1" xmlns="http://www.w3.org/2000/svg" xmlns:xlink="http://www.w3.org/1999/xlink" x="0px" y="0px"
	 width="42px" height="42px" viewBox="0 -2 42 42" enable-background="new 0 -2 42 42" xml:space="preserve">
<g>
	<g>
		<g>
			<path d="M26.193,10.428l-7.932,8.126l-2.46-2.521c-0.519-0.531-1.358-0.531-1.877,0l-1.878,1.924
				c-0.519,0.531-0.519,1.392,0,1.923l4.321,4.429c0.002,0.002,0.138,0.17,0.365,0.373l0.007,0.008
				c0.002,0.002,0.006,0.004,0.008,0.006c0.507,0.447,1.461,1.041,2.489,0.428c0.03-0.014,0.055-0.037,0.084-0.053
				c0.062-0.041,0.123-0.084,0.185-0.133c0.038-0.03,0.081-0.047,0.116-0.084l10.324-10.579c0.519-0.531,0.519-1.392,0-1.923
				l-1.877-1.923C27.552,9.896,26.712,9.896,26.193,10.428z M7.666,6.08h26.667v21.76h4.001V6.08c0-2.254-1.79-4.08-4.001-4.08
				H7.666c-2.208,0-4,1.826-4,4.08v21.76h4V6.08z M38.334,30.561H3.666C2.194,30.561,1,31.777,1,33.28C1,34.782,3.526,36,4.999,36
				H37c1.475,0,4-1.218,4-2.72C41,31.777,39.807,30.561,38.334,30.561z M25.001,34.641H17c-0.737,0-1.333-0.305-1.333-0.681
				s0.596-0.68,1.333-0.68h8.001c0.735,0,1.332,0.304,1.332,0.68S25.736,34.641,25.001,34.641z"/>
		</g>
	</g>
</g>
</svg>
