<?xml version="1.0" encoding="utf-8"?>
<!-- Generator: Adobe Illustrator 16.0.3, SVG Export Plug-In . SVG Version: 6.00 Build 0)  -->
<!DOCTYPE svg PUBLIC "-//W3C//DTD SVG 1.1//EN" "http://www.w3.org/Graphics/SVG/1.1/DTD/svg11.dtd">
<svg version="1.1" id="Warstwa_1" xmlns="http://www.w3.org/2000/svg" xmlns:xlink="http://www.w3.org/1999/xlink" x="0px" y="0px"
	 width="34px" height="34px" viewBox="0 0 34 34" enable-background="new 0 0 34 34" xml:space="preserve">
<path fill="#CCCCCC" d="M14.45,23c-0.27,0-0.539-0.107-0.745-0.319l-4.396-4.547c-0.411-0.426-0.411-1.115,0-1.54
	s1.077-0.425,1.488,0l3.653,3.778l8.753-9.053c0.411-0.425,1.078-0.425,1.488,0c0.412,0.425,0.412,1.114,0,1.54l-9.498,9.822
	C14.989,22.893,14.719,23,14.45,23z"/>
<g>
	<path fill="#CCCCCC" d="M17,3c7.72,0,14,6.28,14,14s-6.28,14-14,14S3,24.72,3,17S9.28,3,17,3 M17,1C8.164,1,1,8.164,1,17
		c0,8.837,7.164,16,16,16c8.837,0,16-7.163,16-16C33,8.164,25.837,1,17,1L17,1z"/>
</g>
</svg>
