<?xml version="1.0" encoding="utf-8"?>
<!-- Generator: Adobe Illustrator 16.0.0, SVG Export Plug-In . SVG Version: 6.00 Build 0)  -->
<!DOCTYPE svg PUBLIC "-//W3C//DTD SVG 1.1//EN" "http://www.w3.org/Graphics/SVG/1.1/DTD/svg11.dtd">
<svg version="1.1" id="Warstwa_1" xmlns="http://www.w3.org/2000/svg" xmlns:xlink="http://www.w3.org/1999/xlink" x="0px" y="0px"
	 width="502px" height="502px" viewBox="0 0 502 502" enable-background="new 0 0 502 502" xml:space="preserve">
<g>
	<g>
		<path fill="#FFFFFF" d="M467.665,201.001h-40.416c-4.033-14.248-9.699-27.779-16.869-40.389l29.127-29.125
			c13.086-13.086,13.086-34.302,0-47.389l-23.693-23.693c-13.087-13.087-34.301-13.087-47.389,0l-29.633,29.636
			c-11.851-6.477-24.542-11.54-37.794-15.294V34.333C300.998,15.923,286.077,1,267.664,1h-33.33
			c-18.411,0-33.336,14.923-33.336,33.333v40.413c-13.749,3.895-26.856,9.264-39.089,16.082l-30.423-30.424
			c-13.085-13.087-34.302-13.087-47.386,0L60.405,84.098c-13.086,13.087-13.086,34.302,0,47.389l30.422,30.421
			c-6.816,12.233-12.186,25.343-16.08,39.092H34.334C15.923,201.001,1,215.924,1,234.334v33.332
			c0,18.41,14.923,33.337,33.334,33.337h40.413c3.753,13.25,8.817,25.94,15.292,37.789l-29.635,29.634
			c-13.086,13.089-13.086,34.305,0,47.392l23.694,23.693c13.084,13.085,34.301,13.085,47.386,0l29.127-29.126
			c12.607,7.166,26.141,12.835,40.385,16.868v40.414c0,18.408,14.924,33.333,33.336,33.333h33.331
			c18.412,0,33.333-14.925,33.333-33.333v-40.414c13.751-3.895,26.86-9.266,39.093-16.081l28.336,28.339
			c13.087,13.085,34.302,13.085,47.389,0l23.693-23.694c13.085-13.086,13.085-34.302,0-47.391l-28.339-28.335
			c6.818-12.232,12.188-25.341,16.079-39.088h40.416c18.41,0,33.335-14.926,33.335-33.337v-33.333
			C501,215.924,486.077,201.001,467.665,201.001z M251,351c-55.229,0-100.001-44.77-100.001-99.999c0-55.228,44.771-100,100.001-100
			c55.228,0,99.999,44.771,99.999,100C350.999,306.228,306.228,351,251,351z M251,201.001c-27.615,0-50.001,22.386-50.001,50
			c0,27.614,22.386,50.002,50.001,50.002c27.612,0,49.998-22.388,49.998-50.002S278.612,201.001,251,201.001z"/>
	</g>
</g>
</svg>
